<?xml version="1.0" encoding="UTF-8"?>
<svg id="Layer_1" xmlns="http://www.w3.org/2000/svg" version="1.1" viewBox="0 0 239.82 239.79">
  <!-- Generator: Adobe Illustrator 30.3.0, SVG Export Plug-In . SVG Version: 2.1.3 Build 182)  -->
  <defs>
    <style>
      .st0 {
        fill: #fff;
        stroke: #fff;
        stroke-miterlimit: 10;
        stroke-width: 6px;
      }
    </style>
  </defs>
  <ellipse class="st0" cx="119.91" cy="119.9" rx="116.91" ry="116.9"/>
  <g>
    <path d="M70.26,213.7l16.78-11.19-19.86.08c-2.09,0-4.05,1.21-5.45,2.63l-9.73,9.87c3.8,2.71,7.76,5.2,11.88,7.46.95-3.61,3.11-6.65,6.39-8.84Z"/>
    <path d="M145.19,211.31c0-2.81-1.54-5.1-3.5-6.92l-7.62-7.06-.02,10.81c2.73,1.31,4.02,3.75,3.93,6.46-.09,2.75-1.89,5.15-4.47,6.01-2.57.86-5.73.07-7.35-2.19-2.58-3.59-1.3-8.41,2.61-10.25l-.05-12.92c0-2.26-.58-4.48-1.63-6.41-2.1-3.86-2.89-7.8-4.1-12.28l-.26,16.82v40.82c.01.92.21,1.8.57,2.57,5.84-.17,11.57-.76,17.17-1.75,1.23-3.17,4.77-5.63,4.77-8.98l-.02-14.73Z"/>
    <path d="M57.03,202.41c2.87-2.91,6.22-5.23,10.47-5.24h22.6c3.72-.02,6.79-1.04,9.81-3.17,2.47-1.75,5.01-3.33,6.72-5.85,1.93-2.86,3.2-6.04,3.65-9.77-4.95,6.2-11.9,9.47-19.65,9.49l-24.99.09c-2.62,0-4.72,1.34-6.46,3.06l-12.13,12.06c-1.6,1.59-3.73,2.73-6.05,2.75h-.35c2.27,2.1,4.62,4.11,7.05,6.02l9.33-9.45Z"/>
    <path d="M153.35,215.08l-2.59-2.26-.21,14.16c-.04,2.81-1.34,4.79-2.63,6.46,3.34-.82,6.63-1.78,9.85-2.88l.02-6.68c.01-3.5-1.88-6.55-4.44-8.79Z"/>
    <path d="M39.17,200.66c1.81-.02,3.33-.54,4.66-1.75l10.89-10.99-14.22-.03c-1.93,3.79-6.69,5.27-10,2.88-2.32-1.68-3.32-4.69-2.63-7.26.74-2.75,3.05-4.69,5.82-4.9,2.9-.21,5.58,1.22,6.74,3.98l24.85-.12,27.02-.15c3.3-.02,6.43-1.11,9.05-2.89,10.27-6.97,11.83-21.72,3.16-29.66-.99-.91-2.09-.78-3.38-.73-6.82.26-13.5-.66-19.54-3.74-15.09-7.68-21.43-23.23-22.64-39.69,12.54-2.59,26.63-1.55,37.17,5.72,9.45,6.25,14.89,16.83,14.88,28.17-5.38-5.18-10.6-9.71-16.68-13.52-5.86-3.68-11.8-6.9-18.8-8.44l10.57,7.26c7.99,5.49,15.21,11.65,22.08,18.44,3.2,3.17,5.83,6.34,8.07,10.42l.06-21.93c.03-11.38-4.12-22.69-12.17-30.73-.77-.76-2.08-.8-3.18-.87-12.12-.69-22.41-6.31-28.04-17.22-1.92-3.71-3.23-7.41-3.96-11.55-.67-3.78-1.26-7.46-.87-11.36,8.33-.56,16.48.57,23.83,4.19,11.28,5.56,17.31,16.22,17.15,28.98-8.34-8.07-16.09-15.55-26.45-20.32l11.64,11.34,11.71,11.58c4.28,4.24,7.79,8.81,10.82,14.1.24-8.09.25-15.57.9-23.35.22-2.63,2.89-6.49,3.94-4.44.78,7.64,1.09,15.06,1.33,23.09,2.17-3.53,4.27-6.58,6.94-9.51,3.98-4.37,8.13-8.26,12.51-12.35l15.28-14.27c-10.14,4.52-18.37,12-26.38,19.4-.2-5.51,1.05-10.49,3.54-15.25,5.86-11.24,18.33-16.24,30.64-16.83,2.43-.12,4.7-.24,7.09.44.06,18.36-8.9,34.93-27.69,38.11l-7.78.9c-1.72.2-3.16,2.35-4.3,3.72-5.96,7.13-8.96,15.88-9.36,25.26l.11,22.79c2.15-3.59,4.21-6.43,6.94-9.19,5.06-5.11,10.3-9.72,16.03-14.13,6.34-4.88,12.84-9.06,19.5-13.58-13.92,3.51-26.19,12.3-36.6,22.16.47-17.62,12.55-30.32,29.04-34.04,8.08-1.82,16.3-1.73,24.43-.22.12,2.41-.33,4.44-.75,6.62-1.36,7.01-3.65,13.59-7.32,19.63-7.32,12.05-20.25,18.75-34.41,17.54-1.19-.1-2.69-.34-3.76.36-3.24,2.12-5.26,5.56-6.08,9.35-1.08,4.99-1.31,10.19-.29,15.26,1.8,8.89,9.91,15.04,18.92,15.06l20.69.07,29.39.07c1.07-2.35,3.14-3.6,5.25-3.89,2.44-.34,4.76.54,6.19,2.55,2.26,3.18,1.47,7.74-1.86,9.77-3.63,2.21-7.82.42-9.74-3.13l-21.13.07,10.78,10.85c1.31,1.32,2.96,1.87,4.83,1.88l10.77.08c20.09-20.99,32.44-49.46,32.44-80.82C236.82,55.34,184.48,3,119.91,3S3,55.34,3,119.91c0,31.34,12.33,59.79,32.4,80.78l3.76-.04ZM195.42,75.07c-1.12,4.1-3.13,7.64-6.01,10.63-5.34,5.3-12.75,5.94-20.03,3.82.98-3.63,2.78-6.76,5.14-9.57,5.27-5.89,13.46-6.99,20.9-4.87ZM145.59,40.63c3.37-6.17,9.55-9.37,16.67-10.33.56,4.25.03,8.2-1.42,12.09-2.95,7.11-9.66,10.41-17.15,11.58-.65-4.67-.1-9.2,1.9-13.34ZM103.33,40.53c1.53-11.17,7.86-21.5,16.42-29.16,6.84,5.99,11.99,13.41,14.83,21.83,5.22,15.45.08,30.07-12.34,40.09l-.42-14.55c-.31-8.18-.51-16.08-2.02-24.36-1.24,5.94-1.36,11.57-1.68,17.45l-.61,21.5c-10.29-8.35-15.94-19.55-14.18-32.82ZM77.91,34.29c6.95.79,13.77,4.13,16.85,10.42,1.97,3.95,2.64,8.24,2.25,13.1-13.04-1.31-20.43-10.28-19.09-23.52ZM72.6,96.76c-3.27.67-6.25,1.27-9.52.83-5.16-.56-9.51-3.05-12.5-7.14-1.92-2.53-3.23-5.25-4.18-8.43,13.04-3.33,22.39,2.08,26.2,14.74Z"/>
    <path d="M164.44,201.65c-1.23.57-1.51,2-1.04,2.89.64,1.22,2.03,1.49,2.78,1.14,1.52-.64,1.59-2.03,1.2-3.04-.61-1.08-1.83-1.51-2.94-.99Z"/>
    <path d="M185.53,202.96l-12.08-12.07c-1.9-1.89-4.19-2.96-6.92-2.96l-17.26-.04c-8.02-.02-14.73-3.49-19.89-9.64.97,4.86,2.64,9.79,6.38,13.23l33.85,31.17c.75.69,1.54,1.33,2.28,2,2.66-1.32,5.27-2.75,7.81-4.26-1.28-.58-2.45-1.36-3.51-2.39l-3.99-3.88-4.28-4.22c-3.15,1.01-6.2-.09-7.83-2.45-1.79-2.58-1.6-5.85.37-8.12,1.99-2.3,5.45-3.13,8.3-1.55,2.86,1.58,3.98,5.03,3.04,8.21l7.86,7.92c1.16,1.17,2.73,2.21,4.52,2.21h2.16c4.49-3.11,8.76-6.52,12.76-10.21l-6.72-.03c-2.67-.01-5.04-1.12-6.84-2.92Z"/>
    <path d="M105.97,232.68c0-2.87,1.47-5.27,3.39-7.19l5.05-5.04c1.97-1.96,2.88-4.81,2.85-7.58l-.12-9.92-14.23,14.41c-2.23,2.26-2.71,5.3-2.71,8.41v9.38c1.91.32,3.83.6,5.77.83v-3.31Z"/>
    <path d="M33.22,183.16c-1.35.66-1.52,2.21-.93,3.12.72,1.11,1.89,1.41,2.86.95,1.22-.57,1.64-2.02,1.1-3.11-.49-.99-1.86-1.53-3.03-.96Z"/>
    <path d="M77.78,228.71l-.05-13.57-4.94,3.35c-2.27,1.54-3.56,3.88-3.98,6.59,2.83,1.38,5.72,2.64,8.68,3.79.1-.05.19-.12.3-.17Z"/>
    <path d="M206,187.35c1.66-.43,1.99-2.24,1.37-3.26-.73-1.19-2.17-1.6-3.42-.78-.89.58-1,1.91-.65,2.69.4.9,1.44,1.67,2.7,1.35Z"/>
    <path d="M166.44,227.18l-3.17-2.83-.03,4.17c1.07-.43,2.14-.88,3.2-1.34Z"/>
    <path d="M94.79,226.07c0-5.26,1.58-9.96,5.29-13.65l11.18-11.12c3.01-3,5.34-6.42,5.34-10.8v-13.13c-1.06,3.18-1.38,6.13-2.64,8.97-2.13,4.75-5.29,8.3-9.64,11.2l-17.52,11.65c-2.24,1.49-3.6,4.18-3.61,6.82l-.07,12.58c1.6.8,2.76,1.98,3.41,3.39,2.72.81,5.48,1.52,8.28,2.14,0-.06,0-.11,0-.17v-7.87Z"/>
    <path d="M117.43,235.82l-.21-10.6-4.12,4.02c-.86.84-1.72,2.1-1.72,3.35v3.92c2.04.15,4.08.24,6.14.28-.05-.32-.09-.64-.09-.97Z"/>
    <path d="M131.76,216.54c1.3-.2,2.01-1.21,1.87-2.58-.11-1.04-1.22-2.09-2.62-1.88-1.45.22-2.04,1.55-1.79,2.76.25,1.17,1.36,1.88,2.54,1.7Z"/>
  </g>
</svg>